<?xml version="1.0" encoding="UTF-8"?>
<svg id="Layer_1" xmlns="http://www.w3.org/2000/svg" version="1.1" viewBox="0 0 517.9 159.5">
  <!-- Generator: Adobe Illustrator 30.0.0, SVG Export Plug-In . SVG Version: 2.1.1 Build 123)  -->
  <defs>
    <style>
      .st0 {
        fill: #fff;
      }
    </style>
  </defs>
  <path class="st0" d="M251,110.3c5.9,0,10.4,1.4,14.4,4.3l-.5-5.8c-3.4-1.5-7.8-2.5-13.4-2.5-13.4,0-22.2,9.5-22.2,22.9s9.5,22,22.1,22,10.2-.9,13.5-2.5v-3.7c-3,1.3-7.4,2.5-11.9,2.5-10.7,0-19.3-6.2-19.3-18.7s6.9-18.5,17.2-18.5ZM68,146.8v-17.9h9.1c1.4,0,3.3,0,4.8.2v-3.9c-1.4,0-3.4.1-4.8.1h-9.1v-14.9h10.6c1.4,0,3.3,0,4.8.2v-4.2h-20.2c.1,2,.2,4.1.3,6.2.1,4.7.2,8.3.2,14.7s0,12.7-.2,17c-.1,2.2-.2,4.4-.4,5.9h20.9v-3.7c-1.5.2-3.4.2-4.8.2h-11.2ZM20,106.2c-4.3,0-8.3.2-11.9.2h-2.5c.1,2,.3,4.1.4,6.2.1,4.7.2,10.1.2,16.4s0,10.9-.2,15.2c-.1,2.2-.2,4.4-.4,5.9h2.9c4,0,7.8.5,12.3.5,14,0,23.4-7.8,23.4-23.1s-8.6-21.4-24.1-21.4ZM21.2,147.3c-2.7,0-7-.4-10.2-1.1-.2-5.4-.4-10.6-.4-15.8s.2-17.2.2-20.3c2-.3,4.4-.5,7.6-.5,12.7,0,21,6,21,18.7s-6.7,18.9-18.2,18.9ZM194.9,113.2c-.9-2.2-1.8-4.6-2.4-6.8h-4.1c-.8,2-1.7,4.5-2.6,6.7l-11.3,28.6c-1.2,2.8-2.3,5.5-3.7,8.5h3.9c0,0,2,0,2,0,3.7-3.2,8.4-5,13.3-5,5,0,9.7,1.8,13.4,5h1.7c0,0,4.3,0,4.3,0-1.4-3-2.6-6-3.7-8.9l-10.8-28.1ZM190.2,141.4s-.1,0-.1,0c-4.3,0-8.5,1.2-12.2,3.4.3-.9.6-1.8.9-2.5l11.2-28.4h.2l11,28.1c.3.8.7,1.7,1,2.7-3.6-2.1-7.7-3.2-12-3.2ZM134.5,106.5h-4.8v4.2c1.5-.2,3.4-.2,4.8-.2h10.2v18.7c0,5.8,0,10.9-.2,15.2s-.2,4.4-.4,5.9h5.6c-.2-1.7-.3-3.7-.4-5.9-.2-4.3-.2-9.6-.2-15.2v-18.7h10.4c1.4,0,3.3,0,4.8.2v-4.2h-29.8ZM106.7,146.8v-17.6c0-6.6.1-11.9.2-16.6,0-2,.2-4,.3-6h-5.3c.1,2,.2,4.1.3,6.2.1,4.7.2,10.1.2,16.4s0,10.9-.2,15.2c-.1,2.2-.2,4.4-.4,5.9h21.4v-3.7c-1.5.2-3.4.2-4.8.2h-11.7ZM491.5,117.4v25.8h-.3l-28.9-36.8h-3.6c0,3.3,0,6.6,0,10.1,0,2.8,0,21.4-.2,26.4-.1,2.7-.3,5.5-.5,7.7h5.1c-.2-1.8-.4-5.3-.4-7.2,0-9.6,0-19.7,0-29.3h.2l29.4,37h3.3v-10.8c0-6.1.2-21.7.3-26.5,0-2.7.2-5.1.4-6.9h-5.3c.2,2.2.4,6.2.4,10.5ZM282.5,54.6l2.1-24.5-18.7,14.8-15-36.6-15,36.4-18.6-14.6,2.1,24.5-30.7-14.6,30.3,42.3s0,0,0,0l.4.5.8,1,1,1.2c16.6-13.3,43.1-12.9,59.2.8l1.7-2,.5-.5s30.9-43.2,30.9-43.2l-30.7,14.6ZM234.6,48l-3.6,8.7-7.4-17.3,10.9,8.6ZM199,48.6l18.6,8.9-7.6,6.5-11-15.4ZM221.5,80.1l-9.5-13.4,7.9-6.8,1.7,20v.2ZM221.8,43.5l7.5,17.3-5,12.3-2.5-29.6ZM249.2,71.9c-8,.1-16.1,2-23.1,5.7l23.1-56.2v50.6ZM278.6,39.1l-7.7,18-3.7-9,11.4-9ZM252.5,71.9V21.2l23.6,57.6c-7.1-4.2-15.3-6.5-23.6-6.8ZM277.5,73.4l-4.9-12,7.4-17.2-2.5,29.1ZM280.4,80.2l1.7-19.7,6.7,8-8.3,11.7ZM283.9,57.7l19-9.1-12.2,17.1-6.8-8.1ZM434.7,111.1c-.3,1.3-.6,2.5-.9,3.9l-7.9,29.4h-.4l-9-29.1c-.8-2.7-1.5-5.6-2-8.3h-5c-.4,2.7-1.1,5.4-1.8,8.1l-8.6,29.4h-.4l-7.8-29.1c-.5-1.6-.9-3.3-1.2-5-.2-1.1-.4-2.2-.6-3.4h-5.4c1,3,1.8,6,2.6,8.9l7.6,28.1c.6,2.2,1.2,4.6,1.6,6.8h5.8c.5-2,1.1-4.5,1.8-6.7l8.6-29.5h.3l8.9,29.5c.7,2.2,1.3,4.6,1.7,6.8h5.4c.6-2.2,1.1-4.5,1.8-6.7l8.2-28.6c.8-2.9,1.7-5.5,2.6-8.5h-5.2c-.2,1.3-.5,2.9-.8,4.2ZM310.1,145.5c-3.3-4-6.7-8.9-10.2-14.9,4.4-2.6,7.3-6,7.3-12.3s-5-11.7-13.7-11.7-5.7,0-7.9.1h-2.9c.1,1.9.2,4,.3,6.4,0,3,.1,6.4.1,10.4v10.3c0,2.7,0,6.1,0,8.8-.1,3-.2,6-.5,8h5.7c-.2-2.1-.4-4.9-.5-8-.1-3.4-.2-7.1-.2-10.5h7.6c.4,0,.6.1.8.4,1.3,2.2,3.6,5.5,5.8,9,2.3,3.7,4,6.4,5.7,9.2,1.9,0,3.7-.1,5.1-.1h2.4c-1.2-1.2-2.9-2.7-4.8-5.1ZM293.4,128.9c-2.3,0-4.4-.2-5.5-.6-.3-.1-.4-.4-.4-.7v-17c1.4-.2,2.9-.4,4.3-.4,7.1,0,10.5,3.1,10.5,9.5s-3.2,9.3-8.8,9.3ZM348,106.2c-13.4,0-22,9.6-22,22.9s8.9,22,21.7,22,22.1-9.6,22.1-22.8-9-22.1-21.8-22.1ZM348.5,147.3c-10.9,0-17.8-8.3-17.8-18.8s6.6-18.1,16.7-18.1,17.7,8.1,17.7,18.5-5.5,18.4-16.6,18.4ZM511.4,106.5l-1.4,3.5-1.4-3.5h-.9v4.8h.6v-4l1.7,4h.2l1.7-4v4h.6v-4.8h-.9ZM503.5,107.1h1.4v4.3h.6v-4.3h1.4v-.6h-3.3v.6Z"/>
</svg>